#N canvas 1024 134 895 892 10;
#X obj 158 156 *~ 10;
#X obj 158 217 -~;
#X obj 175 183 wrap~;
#X obj 164 534 show~;
#X msg 459 290 scale 10;
#X obj 192 241 noise~;
#X obj 165 298 +~;
#X obj 172 387 dynamicsmooth~;
#X obj 172 439 snake~ in 2;
#X obj 272 387 dynamicsmooth-efficient~;
#X obj 180 273 *~ 3;
#X obj 158 135 phasor~ 1;
#X msg 278 294 10;
#X msg 349 290 0.01;
#X connect 0 0 1 0;
#X connect 0 0 2 0;
#X connect 1 0 6 0;
#X connect 2 0 1 1;
#X connect 4 0 3 0;
#X connect 5 0 10 0;
#X connect 6 0 9 0;
#X connect 6 0 7 0;
#X connect 7 0 8 0;
#X connect 8 0 3 0;
#X connect 9 0 8 1;
#X connect 10 0 6 0;
#X connect 11 0 0 0;
#X connect 12 0 7 1;
#X connect 12 0 9 1;
#X connect 13 0 9 2;
#X connect 13 0 7 2;
