#N canvas 145 91 734 665 12;
#X obj 488 150 loadbang;
#X obj 478 198 t f b;
#X obj 478 222 /;
#X obj 510 222 samplerate~;
#X obj 311 207 -~;
#X obj 311 231 abs~;
#X obj 388 310 *~ 15.9591;
#X obj 388 334 -~ 11.9693;
#X obj 350 340 *~;
#X obj 350 364 +~ 5.99488;
#X obj 311 370 *~;
#X obj 311 394 min~ 1;
#X obj 176 37 block~ 1;
#X obj 48 35 inlet~;
#X obj 48 183 *~ 0.5;
#X obj 48 207 -~;
#X obj 48 231 *~;
#X obj 48 255 +~;
#X obj 48 309 +~;
#X obj 48 333 *~ 0.5;
#X obj 48 357 -~;
#X obj 48 381 *~;
#X obj 48 405 +~;
#X obj 48 526 outlet~;
#X obj 48 159 +~;
#X obj 311 255 *~ 2;
#X obj 568 48 inlet;
#X obj 478 174 f 2;
#X obj 478 48 inlet;
#X obj 311 279 +~ 0;
#X text 464 21 basefreq;
#X text 550 21 sensitivity;
#X obj 658 48 inlet;
#X text 656 21 clear;
#X obj 220 502 delwrite~ \$0-in;
#X obj 291 87 delread~ \$0-in;
#X obj 360 502 delwrite~ \$0-low1;
#X obj 510 502 delwrite~ \$0-low2;
#X obj 311 117 delread~ \$0-low1;
#X obj 329 147 delread~ \$0-low2;
#X msg 539 412 clear;
#X text 211 603 https://forum.pdpatchrepo.info/topic/14933/dynamic-smoothing-andrew-simper-style/5;
#X text 209 580 vanilla patch by manuels:;
#X connect 0 0 27 0;
#X connect 1 0 2 0;
#X connect 1 1 3 0;
#X connect 2 0 29 1;
#X connect 3 0 2 1;
#X connect 4 0 5 0;
#X connect 5 0 25 0;
#X connect 6 0 7 0;
#X connect 7 0 8 1;
#X connect 8 0 9 0;
#X connect 9 0 10 1;
#X connect 10 0 11 0;
#X connect 11 0 16 1;
#X connect 11 0 21 1;
#X connect 13 0 24 0;
#X connect 13 0 34 0;
#X connect 14 0 15 0;
#X connect 15 0 16 0;
#X connect 16 0 17 0;
#X connect 17 0 18 0;
#X connect 17 0 36 0;
#X connect 18 0 19 0;
#X connect 19 0 20 0;
#X connect 20 0 21 0;
#X connect 21 0 22 0;
#X connect 22 0 23 0;
#X connect 22 0 37 0;
#X connect 24 0 14 0;
#X connect 25 0 29 0;
#X connect 26 0 25 1;
#X connect 27 0 1 0;
#X connect 28 0 27 0;
#X connect 29 0 6 0;
#X connect 29 0 8 0;
#X connect 29 0 10 0;
#X connect 32 0 40 0;
#X connect 35 0 24 1;
#X connect 38 0 4 0;
#X connect 38 0 15 1;
#X connect 38 0 17 1;
#X connect 38 0 18 1;
#X connect 39 0 4 1;
#X connect 39 0 20 1;
#X connect 39 0 22 1;
#X connect 40 0 34 0;
#X connect 40 0 36 0;
#X connect 40 0 37 0;
