#N canvas 157 37 873 599 12;
#X obj 418 82 loadbang;
#X obj 418 230 /;
#X obj 450 230 samplerate~;
#X obj 211 404 min~ 1;
#X obj 196 55 block~ 1;
#X obj 72 55 inlet~;
#X obj 72 493 outlet~;
#X obj 418 182 f 2;
#X text 414 62 basefreq;
#X text 604 62 sensitivity;
#X text 726 63 clear;
#X text 69 544 https://forum.pdpatchrepo.info/topic/14933/dynamic-smoothing-andrew-simper-style/5, f 82;
#X text 393 230 wc;
#X obj 418 297 tan;
#X text 391 298 gc;
#X text 69 525 vanilla patch for accurate version by manuels:;
#X obj 418 273 *;
#X obj 536 230 atan;
#X msg 536 205 1;
#X obj 536 254 * 4;
#X text 564 255 PI;
#X text 391 384 g0;
#X obj 418 335 t f f;
#X obj 450 359 + 1;
#X obj 418 359 * 2;
#X obj 418 383 /;
#X obj 418 206 t f b b;
#X obj 608 82 loadbang;
#X obj 608 182 f 0.5;
#X obj 608 206 * 4;
#X text 635 207 sense;
#X obj 211 287 -~;
#X text 245 287 bandz;
#X obj 211 331 abs~;
#X obj 211 380 +~;
#X obj 608 230 s \$0-sense;
#X obj 249 336 r \$0-sense;
#X obj 418 407 s \$0-g0;
#X obj 250 361 r \$0-g0;
#X obj 728 182 s \$0-clear;
#X msg 728 131 clear;
#X text 263 404 g;
#X obj 72 226 -~;
#X obj 72 323 *~;
#X obj 72 347 +~;
#X obj 72 399 -~;
#X text 31 348 low1;
#X obj 72 423 *~;
#X obj 72 447 +~;
#X text 32 447 low2;
#X obj 418 132 f \$1;
#X obj 608 132 f \$2;
#X obj 418 157 sel 0;
#X obj 608 157 sel 0;
#X obj 211 355 *~;
#X obj 151 207 r~ \$0-low1z;
#X obj 198 235 r~ \$0-low2z;
#X obj 111 82 route basefreq sensitivity clear channels;
#X obj 324 493 s~ \$0-low1z;
#X obj 185 493 s~ \$0-low2z;
#X msg 324 432 channels \$1;
#N canvas 63 88 450 300 bang2impulse~ 1;
#X obj 49 95 tabplay~ \$0-impulse;
#X obj 210 53 loadbang;
#X obj 210 95 array define \$0-impulse 2;
#X obj 49 53 inlet;
#X obj 49 74 t b;
#X obj 49 116 outlet~;
#X msg 210 74 0 1;
#X connect 0 0 5 0;
#X connect 1 0 6 0;
#X connect 3 0 4 0;
#X connect 4 0 0 0;
#X connect 6 0 2 0;
#X restore 533 402 pd bang2impulse~;
#X obj 533 426 *~ -1;
#X obj 533 450 +~ 1;
#X obj 324 469 *~;
#X obj 185 469 *~;
#X obj 533 377 r \$0-clear;
#X connect 0 0 50 0;
#X connect 1 0 16 0;
#X connect 2 0 1 1;
#X connect 3 0 43 1;
#X connect 3 0 47 1;
#X connect 5 0 42 0;
#X connect 5 1 57 0;
#X connect 7 0 26 0;
#X connect 13 0 22 0;
#X connect 16 0 13 0;
#X connect 17 0 19 0;
#X connect 18 0 17 0;
#X connect 19 0 16 1;
#X connect 22 0 24 0;
#X connect 22 1 23 0;
#X connect 23 0 25 1;
#X connect 24 0 25 0;
#X connect 25 0 37 0;
#X connect 26 0 1 0;
#X connect 26 1 2 0;
#X connect 26 2 18 0;
#X connect 27 0 51 0;
#X connect 28 0 29 0;
#X connect 29 0 35 0;
#X connect 31 0 33 0;
#X connect 33 0 54 0;
#X connect 34 0 3 0;
#X connect 36 0 54 1;
#X connect 38 0 34 1;
#X connect 40 0 39 0;
#X connect 42 0 43 0;
#X connect 43 0 44 0;
#X connect 44 0 45 0;
#X connect 44 0 64 0;
#X connect 45 0 47 0;
#X connect 47 0 48 0;
#X connect 48 0 6 0;
#X connect 48 0 65 0;
#X connect 50 0 52 0;
#X connect 51 0 53 0;
#X connect 52 0 7 0;
#X connect 52 1 26 0;
#X connect 53 0 28 0;
#X connect 53 1 29 0;
#X connect 54 0 34 0;
#X connect 55 0 31 0;
#X connect 55 0 42 1;
#X connect 55 0 44 1;
#X connect 56 0 31 1;
#X connect 56 0 45 1;
#X connect 56 0 48 1;
#X connect 57 0 50 0;
#X connect 57 1 51 0;
#X connect 57 2 40 0;
#X connect 57 3 60 0;
#X connect 60 0 58 0;
#X connect 60 0 59 0;
#X connect 61 0 62 0;
#X connect 62 0 63 0;
#X connect 63 0 64 1;
#X connect 63 0 65 1;
#X connect 64 0 58 0;
#X connect 65 0 59 0;
#X connect 66 0 61 0;
