#N canvas 446 124 808 631 10;
#X obj 58 124 -~;
#X obj 73 103 wrap~;
#X obj 139 55 noise~;
#X obj 58 211 +~;
#X obj 139 76 *~ 3;
#X obj 58 287 dynsmooth-abs~ 10 0.01;
#X obj 208 288 dynsmooth-abs-efficient~ 10 0.01;
#X obj 371 110 hsl 136 16 0.01 100 1 0 empty empty empty -2 -8 0 10 #fcfcfc #000000 #000000 0 1;
#X msg 368 151 basefreq \$1;
#X floatatom 368 131 5 0 0 0 - - - 0;
#X obj 79 330 tgl 16 0 empty empty empty 0 -8 0 10 #fcfcfc #000000 #000000 0 1;
#X obj 58 351 *~ 1;
#X obj 208 351 *~ 1;
#X obj 414 351 *~ 1;
#X obj 229 330 tgl 16 0 empty empty empty 0 -8 0 10 #fcfcfc #000000 #000000 0 1;
#X obj 435 330 tgl 16 0 empty empty empty 0 -8 0 10 #fcfcfc #000000 #000000 0 1;
#X obj 544 110 hsl 136 16 0.01 100 1 0 empty empty empty -2 -8 0 10 #fcfcfc #000000 #000000 0 1;
#X floatatom 541 131 5 0 0 0 - - - 0;
#X msg 541 151 sensitivity \$1;
#X text 59 580 ^ for [show~] object \, see https://github.com/ben-wes/pdlua-show_tilde, f 69;
#X msg 456 263 mode \$1;
#X obj 456 241 tgl 16 0 empty empty empty 0 -8 0 10 #fcfcfc #000000 #000000 0 1;
#X obj 541 351 *~ 1;
#X obj 562 330 tgl 16 0 empty empty empty 0 -8 0 10 #fcfcfc #000000 #000000 0 1;
#X msg 583 263 mode \$1;
#X obj 583 241 tgl 16 0 empty empty empty 0 -8 0 10 #fcfcfc #000000 #000000 0 1;
#X obj 541 289 dynsmooth~ -e 10 0.01;
#X obj 414 289 dynsmooth~ 10 0.01;
#X text 588 322 create in "efficient mode" with -e flag, f 26;
#X obj 58 409 snake~ in 4;
#X obj 58 76 *~ 20;
#X obj 58 145 -~ 10;
#X obj 58 430 show~ -scale 10 -interval 400 -width 400;
#X obj 58 55 phasor~ 0.3;
#X connect 0 0 31 0;
#X connect 1 0 0 1;
#X connect 2 0 4 0;
#X connect 3 0 5 0;
#X connect 3 0 6 0;
#X connect 3 0 27 0;
#X connect 3 0 26 0;
#X connect 4 0 3 0;
#X connect 5 0 11 0;
#X connect 6 0 12 0;
#X connect 7 0 9 0;
#X connect 8 0 6 0;
#X connect 8 0 5 0;
#X connect 8 0 27 0;
#X connect 8 0 26 0;
#X connect 9 0 8 0;
#X connect 10 0 11 1;
#X connect 11 0 29 0;
#X connect 12 0 29 1;
#X connect 13 0 29 2;
#X connect 14 0 12 1;
#X connect 15 0 13 1;
#X connect 16 0 17 0;
#X connect 17 0 18 0;
#X connect 18 0 6 0;
#X connect 18 0 5 0;
#X connect 18 0 27 0;
#X connect 18 0 26 0;
#X connect 20 0 27 0;
#X connect 21 0 20 0;
#X connect 22 0 29 3;
#X connect 23 0 22 1;
#X connect 24 0 26 0;
#X connect 25 0 24 0;
#X connect 26 0 22 0;
#X connect 27 0 13 0;
#X connect 29 0 32 0;
#X connect 30 0 0 0;
#X connect 30 0 1 0;
#X connect 31 0 3 0;
#X connect 33 0 30 0;
