#N canvas 145 91 824 734 12;
#X obj 477 307 t f b;
#X obj 477 331 /;
#X obj 509 331 samplerate~;
#X obj 311 278 -~;
#X obj 311 302 abs~;
#X obj 388 381 *~ 15.9591;
#X obj 388 405 -~ 11.9693;
#X obj 350 411 *~;
#X obj 350 435 +~ 5.99488;
#X obj 311 441 *~;
#X obj 311 465 min~ 1;
#X obj 176 37 block~ 1;
#X obj 48 35 inlet~;
#X obj 48 254 *~ 0.5;
#X obj 48 278 -~;
#X obj 48 302 *~;
#X obj 48 326 +~;
#X obj 48 380 +~;
#X obj 48 404 *~ 0.5;
#X obj 48 428 -~;
#X obj 48 452 *~;
#X obj 48 476 +~;
#X obj 48 597 outlet~;
#X obj 48 230 +~;
#X text 201 644 https://forum.pdpatchrepo.info/topic/14933/dynamic-smoothing-andrew-simper-style/5;
#X text 199 621 original vanilla patch by manuels:;
#X obj 477 82 loadbang;
#X text 474 62 basefreq;
#X text 686 64 clear;
#X obj 688 195 s \$0-clear;
#X msg 688 164 clear;
#X obj 311 326 *~;
#X obj 311 350 +~;
#X text 575 62 sensitivity;
#X obj 579 82 loadbang;
#X obj 579 164 f \$2;
#X obj 579 187 sel 0;
#X obj 579 212 f 2;
#X obj 477 214 f 2;
#X obj 477 164 f \$1;
#X obj 477 189 sel 0;
#X obj 291 158 r~ \$0-in;
#X obj 311 188 r~ \$0-low1;
#X obj 329 218 r~ \$0-low2;
#X obj 111 83 route basefreq sensitivity clear channels;
#X obj 510 573 s~ \$0-low2;
#X obj 360 573 s~ \$0-low1;
#X obj 220 573 s~ \$0-in;
#X msg 510 429 channels \$1;
#N canvas 63 88 450 300 bang2impulse~ 0;
#X obj 49 95 tabplay~ \$0-impulse;
#X obj 210 53 loadbang;
#X obj 210 95 array define \$0-impulse 2;
#X obj 49 53 inlet;
#X obj 49 74 t b;
#X obj 49 116 outlet~;
#X msg 210 74 0 1;
#X connect 0 0 5 0;
#X connect 1 0 6 0;
#X connect 3 0 4 0;
#X connect 4 0 0 0;
#X connect 6 0 2 0;
#X restore 611 454 pd bang2impulse~;
#X obj 611 478 *~ -1;
#X obj 611 502 +~ 1;
#X obj 611 429 r \$0-clear;
#X obj 220 543 *~;
#X obj 360 543 *~;
#X obj 510 543 *~;
#X connect 0 0 1 0;
#X connect 0 1 2 0;
#X connect 1 0 32 1;
#X connect 2 0 1 1;
#X connect 3 0 4 0;
#X connect 4 0 31 0;
#X connect 5 0 6 0;
#X connect 6 0 7 1;
#X connect 7 0 8 0;
#X connect 8 0 9 1;
#X connect 9 0 10 0;
#X connect 10 0 15 1;
#X connect 10 0 20 1;
#X connect 12 0 23 0;
#X connect 12 0 53 0;
#X connect 12 1 44 0;
#X connect 13 0 14 0;
#X connect 14 0 15 0;
#X connect 15 0 16 0;
#X connect 16 0 17 0;
#X connect 16 0 54 0;
#X connect 17 0 18 0;
#X connect 18 0 19 0;
#X connect 19 0 20 0;
#X connect 20 0 21 0;
#X connect 21 0 22 0;
#X connect 21 0 55 0;
#X connect 23 0 13 0;
#X connect 26 0 39 0;
#X connect 30 0 29 0;
#X connect 31 0 32 0;
#X connect 32 0 5 0;
#X connect 32 0 7 0;
#X connect 32 0 9 0;
#X connect 34 0 35 0;
#X connect 35 0 36 0;
#X connect 36 0 37 0;
#X connect 36 1 31 1;
#X connect 37 0 31 1;
#X connect 38 0 0 0;
#X connect 39 0 40 0;
#X connect 40 0 38 0;
#X connect 40 1 0 0;
#X connect 41 0 23 1;
#X connect 42 0 3 0;
#X connect 42 0 14 1;
#X connect 42 0 16 1;
#X connect 42 0 17 1;
#X connect 43 0 3 1;
#X connect 43 0 19 1;
#X connect 43 0 21 1;
#X connect 44 0 39 0;
#X connect 44 1 35 0;
#X connect 44 2 30 0;
#X connect 44 3 48 0;
#X connect 48 0 45 0;
#X connect 48 0 47 0;
#X connect 48 0 46 0;
#X connect 49 0 50 0;
#X connect 50 0 51 0;
#X connect 51 0 55 1;
#X connect 51 0 54 1;
#X connect 51 0 53 1;
#X connect 52 0 49 0;
#X connect 53 0 47 0;
#X connect 54 0 46 0;
#X connect 55 0 45 0;
