#N canvas 157 37 816 591 12;
#X obj 388 81 loadbang;
#X obj 388 229 /;
#X obj 420 229 samplerate~;
#X obj 211 404 min~ 1;
#X obj 196 55 block~ 1;
#X obj 72 55 inlet~;
#X obj 72 493 outlet~;
#X obj 388 181 f 2;
#X text 384 61 basefreq;
#X text 574 61 sensitivity;
#X text 696 62 clear;
#X text 69 544 https://forum.pdpatchrepo.info/topic/14933/dynamic-smoothing-andrew-simper-style/5, f 82;
#X text 363 229 wc;
#X obj 388 296 tan;
#X text 361 297 gc;
#X text 69 525 vanilla patch for accurate version by manuels:;
#X obj 388 272 *;
#X obj 506 229 atan;
#X msg 506 204 1;
#X obj 506 253 * 4;
#X text 534 254 PI;
#X text 361 383 g0;
#X obj 388 334 t f f;
#X obj 420 358 + 1;
#X obj 388 358 * 2;
#X obj 388 382 /;
#X obj 388 205 t f b b;
#X obj 578 81 loadbang;
#X obj 578 181 f 0.5;
#X obj 578 205 * 4;
#X text 605 206 sense;
#X obj 211 287 -~;
#X text 244 287 bandz;
#X obj 211 331 abs~;
#X obj 211 380 +~;
#X obj 578 229 s \$0-sense;
#X obj 249 336 r \$0-sense;
#X obj 388 406 s \$0-g0;
#X obj 250 361 r \$0-g0;
#X obj 698 181 s \$0-clear;
#X msg 698 130 clear;
#X obj 299 450 r \$0-clear;
#X text 263 404 g;
#X obj 72 226 -~;
#X obj 72 323 *~;
#X obj 72 347 +~;
#X obj 72 399 -~;
#X obj 299 493 delwrite~ \$0-low1z;
#X obj 159 493 delwrite~ \$0-low2z;
#X obj 198 236 delread~ \$0-low2z;
#X obj 151 207 delread~ \$0-low1z;
#X text 31 348 low1;
#X obj 72 423 *~;
#X obj 72 447 +~;
#X text 32 447 low2;
#X obj 111 82 route basefreq sensitivity clear;
#X obj 388 131 f \$1;
#X obj 578 131 f \$2;
#X obj 388 156 sel 0;
#X obj 578 156 sel 0;
#X obj 211 355 *~;
#X connect 0 0 56 0;
#X connect 1 0 16 0;
#X connect 2 0 1 1;
#X connect 3 0 44 1;
#X connect 3 0 52 1;
#X connect 5 0 43 0;
#X connect 5 1 55 0;
#X connect 7 0 26 0;
#X connect 13 0 22 0;
#X connect 16 0 13 0;
#X connect 17 0 19 0;
#X connect 18 0 17 0;
#X connect 19 0 16 1;
#X connect 22 0 24 0;
#X connect 22 1 23 0;
#X connect 23 0 25 1;
#X connect 24 0 25 0;
#X connect 25 0 37 0;
#X connect 26 0 1 0;
#X connect 26 1 2 0;
#X connect 26 2 18 0;
#X connect 27 0 57 0;
#X connect 28 0 29 0;
#X connect 29 0 35 0;
#X connect 31 0 33 0;
#X connect 33 0 60 0;
#X connect 34 0 3 0;
#X connect 36 0 60 1;
#X connect 38 0 34 1;
#X connect 40 0 39 0;
#X connect 41 0 47 0;
#X connect 41 0 48 0;
#X connect 43 0 44 0;
#X connect 44 0 45 0;
#X connect 45 0 46 0;
#X connect 45 0 47 0;
#X connect 46 0 52 0;
#X connect 49 0 31 1;
#X connect 49 0 46 1;
#X connect 49 0 53 1;
#X connect 50 0 31 0;
#X connect 50 0 43 1;
#X connect 50 0 45 1;
#X connect 52 0 53 0;
#X connect 53 0 48 0;
#X connect 53 0 6 0;
#X connect 55 0 56 0;
#X connect 55 1 57 0;
#X connect 55 2 40 0;
#X connect 56 0 58 0;
#X connect 57 0 59 0;
#X connect 58 0 7 0;
#X connect 58 1 26 0;
#X connect 59 0 28 0;
#X connect 59 1 29 0;
#X connect 60 0 34 0;
